<svg xmlns="http://www.w3.org/2000/svg" xmlns:xlink="http://www.w3.org/1999/xlink" width="100" zoomAndPan="magnify" viewBox="0 0 75 74.999997" height="100" preserveAspectRatio="xMidYMid meet" version="1.0"><defs><clipPath id="17df315c03"><path d="M 8.371094 20 L 66.871094 20 L 66.871094 53 L 8.371094 53 Z M 8.371094 20 " clip-rule="nonzero"/></clipPath><clipPath id="a6485716b1"><path d="M 20 7.5 L 55 7.5 L 55 67.472656 L 20 67.472656 Z M 20 7.5 " clip-rule="nonzero"/></clipPath></defs><g clip-path="url(#17df315c03)"><path fill="#ffffff" d="M 8.371094 52.363281 L 8.371094 20.25 L 37.503906 35.707031 L 66.625 20.25 L 66.625 52.363281 L 61.582031 52.363281 L 61.582031 28.574219 L 37.503906 41.363281 L 13.128906 28.574219 L 13.128906 52.363281 Z M 8.371094 52.363281 " fill-opacity="1" fill-rule="nonzero"/></g><g clip-path="url(#a6485716b1)"><path fill="#ffffff" d="M 23.238281 7.472656 L 54.148438 7.472656 L 54.148438 16.683594 L 49.09375 19.363281 L 49.09375 12.53125 L 25.90625 12.53125 L 25.90625 31.550781 L 20.863281 29.171875 L 20.863281 7.472656 Z M 25.90625 45.230469 L 25.90625 62.472656 L 49.09375 62.472656 L 49.09375 29.472656 L 54.148438 29.472656 L 54.148438 67.515625 L 20.863281 67.515625 L 20.863281 42.550781 Z M 25.90625 45.230469 " fill-opacity="1" fill-rule="nonzero"/></g><path stroke-linecap="butt" transform="matrix(0, 0.75, -0.75, 0, 24.953587, 10.753894)" fill="none" stroke-linejoin="miter" d="M 0.000016491 2.000616 L 13.197934 2.000616 " stroke="#ffffff" stroke-width="4" stroke-opacity="1" stroke-miterlimit="4"/></svg>